<svg width="61" height="27" viewBox="0 0 61 27" fill="none" xmlns="http://www.w3.org/2000/svg">
<path d="M3.04 8.1C2.48667 8.1 1.95667 7.99 1.45 7.77C0.943333 7.54333 0.496667 7.22 0.11 6.8L0.62 6.27C0.98 6.65667 1.36333 6.94667 1.77 7.14C2.18333 7.33333 2.61667 7.43 3.07 7.43C3.43667 7.43 3.76 7.37333 4.04 7.26C4.32667 7.14 4.55 6.97667 4.71 6.77C4.87 6.55667 4.95 6.31667 4.95 6.05C4.95 5.69 4.82333 5.41333 4.57 5.22C4.32333 5.02667 3.91333 4.88333 3.34 4.79L2.33 4.63C1.65667 4.51667 1.16 4.31667 0.84 4.03C0.52 3.74333 0.36 3.35333 0.36 2.86C0.36 2.47333 0.463333 2.13333 0.67 1.84C0.876667 1.54667 1.16333 1.32 1.53 1.16C1.90333 0.993333 2.33333 0.909999 2.82 0.909999C3.31333 0.909999 3.79667 0.989999 4.27 1.15C4.75 1.31 5.18667 1.54 5.58 1.84L5.14 2.44C4.37333 1.86 3.59 1.57 2.79 1.57C2.45667 1.57 2.16333 1.62333 1.91 1.73C1.65667 1.83 1.46 1.97333 1.32 2.16C1.18 2.34 1.11 2.55333 1.11 2.8C1.11 3.12667 1.22 3.37667 1.44 3.55C1.66 3.72333 2.02333 3.85 2.53 3.93L3.53 4.09C4.29667 4.21667 4.85333 4.43333 5.2 4.74C5.54667 5.04 5.72 5.46333 5.72 6.01C5.72 6.41667 5.60667 6.78 5.38 7.1C5.15333 7.41333 4.83667 7.66 4.43 7.84C4.03 8.01333 3.56667 8.1 3.04 8.1ZM9.76379 8.11C9.17045 8.11 8.65712 7.98667 8.22379 7.74C7.79045 7.48667 7.45712 7.13 7.22379 6.67C6.99045 6.21 6.87379 5.66667 6.87379 5.04V1H7.64379V5.04C7.64379 5.52 7.73045 5.93667 7.90379 6.29C8.07712 6.64333 8.32379 6.91667 8.64379 7.11C8.96379 7.30333 9.33712 7.4 9.76379 7.4C10.1971 7.4 10.5705 7.30333 10.8838 7.11C11.2038 6.91667 11.4505 6.64333 11.6238 6.29C11.7971 5.93667 11.8838 5.52 11.8838 5.04V1H12.6538V5.04C12.6538 5.66667 12.5338 6.21 12.2938 6.67C12.0605 7.13 11.7271 7.48667 11.2938 7.74C10.8671 7.98667 10.3571 8.11 9.76379 8.11ZM13.3186 8L16.2186 1H17.1486L20.0286 8H19.1886L18.3086 5.8H15.0086L14.1186 8H13.3186ZM15.2786 5.14H18.0386L16.6586 1.71L15.2786 5.14ZM1.16 26V12H4.6V22.96H11.98V26H1.16ZM20.2236 26.22C19.1703 26.22 18.1903 26.04 17.2836 25.68C16.377 25.3067 15.5836 24.7933 14.9036 24.14C14.2236 23.4733 13.6903 22.7067 13.3036 21.84C12.9303 20.96 12.7436 20.0133 12.7436 19C12.7436 17.9867 12.9303 17.0467 13.3036 16.18C13.6903 15.3 14.2236 14.5333 14.9036 13.88C15.5836 13.2133 16.377 12.7 17.2836 12.34C18.1903 11.9667 19.1703 11.78 20.2236 11.78C21.277 11.78 22.257 11.9667 23.1636 12.34C24.0703 12.7 24.8636 13.2133 25.5436 13.88C26.2236 14.5333 26.7503 15.3 27.1236 16.18C27.5103 17.0467 27.7036 17.9867 27.7036 19C27.7036 20.0133 27.5103 20.96 27.1236 21.84C26.7503 22.7067 26.2236 23.4733 25.5436 24.14C24.8636 24.7933 24.0703 25.3067 23.1636 25.68C22.257 26.04 21.277 26.22 20.2236 26.22ZM20.2236 23.06C20.7836 23.06 21.3036 22.96 21.7836 22.76C22.2636 22.5467 22.677 22.26 23.0236 21.9C23.3836 21.54 23.6636 21.1133 23.8636 20.62C24.0636 20.1133 24.1636 19.5733 24.1636 19C24.1636 18.4133 24.0636 17.8733 23.8636 17.38C23.6636 16.8867 23.3836 16.46 23.0236 16.1C22.677 15.74 22.2636 15.46 21.7836 15.26C21.3036 15.0467 20.7836 14.94 20.2236 14.94C19.6636 14.94 19.1436 15.0467 18.6636 15.26C18.1836 15.46 17.7636 15.74 17.4036 16.1C17.057 16.46 16.7836 16.8867 16.5836 17.38C16.3836 17.8733 16.2836 18.4133 16.2836 19C16.2836 19.5733 16.3836 20.1133 16.5836 20.62C16.7836 21.1133 17.057 21.54 17.4036 21.9C17.7636 22.26 18.1836 22.5467 18.6636 22.76C19.1436 22.96 19.6636 23.06 20.2236 23.06ZM36.7804 26.22C35.7271 26.22 34.7471 26.04 33.8404 25.68C32.9337 25.3067 32.1337 24.7933 31.4404 24.14C30.7604 23.4733 30.2271 22.7067 29.8404 21.84C29.4671 20.96 29.2804 20.0133 29.2804 19C29.2804 17.9867 29.4671 17.0467 29.8404 16.18C30.2271 15.3 30.7537 14.5333 31.4204 13.88C32.1004 13.2133 32.8937 12.7 33.8004 12.34C34.7071 11.9667 35.6804 11.78 36.7204 11.78C37.9071 11.78 39.0271 12.0267 40.0804 12.52C41.1337 13 41.9937 13.6667 42.6604 14.52L40.2404 16.7C39.7871 16.1133 39.2604 15.6733 38.6604 15.38C38.0737 15.0867 37.4271 14.94 36.7204 14.94C36.1604 14.94 35.6404 15.0467 35.1604 15.26C34.6937 15.46 34.2804 15.74 33.9204 16.1C33.5737 16.46 33.3004 16.8867 33.1004 17.38C32.9137 17.8733 32.8204 18.4133 32.8204 19C32.8204 19.5867 32.9204 20.1333 33.1204 20.64C33.3204 21.1333 33.6004 21.5667 33.9604 21.94C34.3337 22.3 34.7604 22.5867 35.2404 22.8C35.7337 23 36.2671 23.1 36.8404 23.1C37.3871 23.1 37.8804 23.0067 38.3204 22.82C38.7737 22.6333 39.1604 22.3733 39.4804 22.04C39.8004 21.7067 40.0271 21.3267 40.1604 20.9H36.3804V17.92H43.8804V18.92C43.8804 19.9733 43.7004 20.9467 43.3404 21.84C42.9937 22.72 42.5004 23.4933 41.8604 24.16C41.2337 24.8133 40.4871 25.32 39.6204 25.68C38.7537 26.04 37.8071 26.22 36.7804 26.22ZM52.926 26.22C51.8727 26.22 50.8927 26.04 49.986 25.68C49.0794 25.3067 48.286 24.7933 47.606 24.14C46.926 23.4733 46.3927 22.7067 46.006 21.84C45.6327 20.96 45.446 20.0133 45.446 19C45.446 17.9867 45.6327 17.0467 46.006 16.18C46.3927 15.3 46.926 14.5333 47.606 13.88C48.286 13.2133 49.0794 12.7 49.986 12.34C50.8927 11.9667 51.8727 11.78 52.926 11.78C53.9794 11.78 54.9594 11.9667 55.866 12.34C56.7727 12.7 57.566 13.2133 58.246 13.88C58.926 14.5333 59.4527 15.3 59.826 16.18C60.2127 17.0467 60.406 17.9867 60.406 19C60.406 20.0133 60.2127 20.96 59.826 21.84C59.4527 22.7067 58.926 23.4733 58.246 24.14C57.566 24.7933 56.7727 25.3067 55.866 25.68C54.9594 26.04 53.9794 26.22 52.926 26.22ZM52.926 23.06C53.486 23.06 54.006 22.96 54.486 22.76C54.966 22.5467 55.3794 22.26 55.726 21.9C56.086 21.54 56.366 21.1133 56.566 20.62C56.766 20.1133 56.866 19.5733 56.866 19C56.866 18.4133 56.766 17.8733 56.566 17.38C56.366 16.8867 56.086 16.46 55.726 16.1C55.3794 15.74 54.966 15.46 54.486 15.26C54.006 15.0467 53.486 14.94 52.926 14.94C52.366 14.94 51.846 15.0467 51.366 15.26C50.886 15.46 50.466 15.74 50.106 16.1C49.7594 16.46 49.486 16.8867 49.286 17.38C49.086 17.8733 48.986 18.4133 48.986 19C48.986 19.5733 49.086 20.1133 49.286 20.62C49.486 21.1133 49.7594 21.54 50.106 21.9C50.466 22.26 50.886 22.5467 51.366 22.76C51.846 22.96 52.366 23.06 52.926 23.06Z" fill="white" />
</svg>
